<mxfile host="Electron" agent="Mozilla/5.0 (Windows NT 10.0; Win64; x64) AppleWebKit/537.36 (KHTML, like Gecko) draw.io/28.1.2 Chrome/138.0.7204.243 Electron/37.4.0 Safari/537.36" version="28.1.2" pages="6">
  <diagram id="eiDuwP7BxHOCGEV4mQCg" name="fc1">
    <mxGraphModel dx="874" dy="682" grid="1" gridSize="10" guides="1" tooltips="1" connect="1" arrows="1" fold="1" page="1" pageScale="1" pageWidth="827" pageHeight="1169" math="0" shadow="0">
      <root>
        <mxCell id="0" />
        <mxCell id="1" parent="0" />
        <mxCell id="avIDiTlglhun5P4ctQTW-9" style="edgeStyle=orthogonalEdgeStyle;rounded=0;orthogonalLoop=1;jettySize=auto;html=1;exitX=0.5;exitY=1;exitDx=0;exitDy=0;exitPerimeter=0;entryX=0.5;entryY=0;entryDx=0;entryDy=0;endArrow=block;endFill=1;" parent="1" source="avIDiTlglhun5P4ctQTW-2" target="avIDiTlglhun5P4ctQTW-3" edge="1">
          <mxGeometry relative="1" as="geometry" />
        </mxCell>
        <mxCell id="avIDiTlglhun5P4ctQTW-2" value="start" style="strokeWidth=2;html=1;shape=mxgraph.flowchart.terminator;whiteSpace=wrap;" parent="1" vertex="1">
          <mxGeometry x="310" y="80" width="100" height="60" as="geometry" />
        </mxCell>
        <mxCell id="avIDiTlglhun5P4ctQTW-10" style="edgeStyle=orthogonalEdgeStyle;rounded=0;orthogonalLoop=1;jettySize=auto;html=1;exitX=0.5;exitY=1;exitDx=0;exitDy=0;entryX=0.5;entryY=0;entryDx=0;entryDy=0;endArrow=block;endFill=1;" parent="1" source="avIDiTlglhun5P4ctQTW-3" target="avIDiTlglhun5P4ctQTW-4" edge="1">
          <mxGeometry relative="1" as="geometry" />
        </mxCell>
        <mxCell id="avIDiTlglhun5P4ctQTW-3" value="set score&lt;br&gt;initially 0" style="shape=hexagon;perimeter=hexagonPerimeter2;whiteSpace=wrap;html=1;fixedSize=1;" parent="1" vertex="1">
          <mxGeometry x="300" y="200" width="120" height="60" as="geometry" />
        </mxCell>
        <mxCell id="avIDiTlglhun5P4ctQTW-11" style="edgeStyle=orthogonalEdgeStyle;rounded=0;orthogonalLoop=1;jettySize=auto;html=1;exitX=0.5;exitY=1;exitDx=0;exitDy=0;entryX=0.5;entryY=0;entryDx=0;entryDy=0;endArrow=block;endFill=1;" parent="1" source="avIDiTlglhun5P4ctQTW-4" target="avIDiTlglhun5P4ctQTW-5" edge="1">
          <mxGeometry relative="1" as="geometry" />
        </mxCell>
        <mxCell id="avIDiTlglhun5P4ctQTW-4" value="get score from keyboard" style="shape=parallelogram;perimeter=parallelogramPerimeter;whiteSpace=wrap;html=1;fixedSize=1;" parent="1" vertex="1">
          <mxGeometry x="300" y="320" width="120" height="60" as="geometry" />
        </mxCell>
        <mxCell id="avIDiTlglhun5P4ctQTW-12" style="edgeStyle=orthogonalEdgeStyle;rounded=0;orthogonalLoop=1;jettySize=auto;html=1;exitX=0.5;exitY=1;exitDx=0;exitDy=0;entryX=0.5;entryY=0;entryDx=0;entryDy=0;endArrow=block;endFill=1;" parent="1" source="avIDiTlglhun5P4ctQTW-5" target="avIDiTlglhun5P4ctQTW-6" edge="1">
          <mxGeometry relative="1" as="geometry" />
        </mxCell>
        <mxCell id="avIDiTlglhun5P4ctQTW-15" style="edgeStyle=orthogonalEdgeStyle;rounded=0;orthogonalLoop=1;jettySize=auto;html=1;exitX=1;exitY=0.5;exitDx=0;exitDy=0;entryX=0.5;entryY=0;entryDx=0;entryDy=0;endArrow=block;endFill=1;" parent="1" source="avIDiTlglhun5P4ctQTW-5" target="avIDiTlglhun5P4ctQTW-7" edge="1">
          <mxGeometry relative="1" as="geometry" />
        </mxCell>
        <mxCell id="avIDiTlglhun5P4ctQTW-5" value="is score &amp;gt;= 60?" style="rhombus;whiteSpace=wrap;html=1;" parent="1" vertex="1">
          <mxGeometry x="300" y="440" width="120" height="80" as="geometry" />
        </mxCell>
        <mxCell id="avIDiTlglhun5P4ctQTW-13" style="edgeStyle=orthogonalEdgeStyle;rounded=0;orthogonalLoop=1;jettySize=auto;html=1;exitX=0.5;exitY=1;exitDx=0;exitDy=0;entryX=0.5;entryY=0;entryDx=0;entryDy=0;entryPerimeter=0;endArrow=block;endFill=1;" parent="1" source="avIDiTlglhun5P4ctQTW-6" target="avIDiTlglhun5P4ctQTW-8" edge="1">
          <mxGeometry relative="1" as="geometry" />
        </mxCell>
        <mxCell id="avIDiTlglhun5P4ctQTW-6" value="display &quot;Pass&quot;" style="shape=parallelogram;perimeter=parallelogramPerimeter;whiteSpace=wrap;html=1;fixedSize=1;" parent="1" vertex="1">
          <mxGeometry x="300" y="560" width="120" height="60" as="geometry" />
        </mxCell>
        <mxCell id="avIDiTlglhun5P4ctQTW-14" style="edgeStyle=orthogonalEdgeStyle;rounded=0;orthogonalLoop=1;jettySize=auto;html=1;exitX=0.5;exitY=1;exitDx=0;exitDy=0;endArrow=block;endFill=1;" parent="1" source="avIDiTlglhun5P4ctQTW-7" edge="1">
          <mxGeometry relative="1" as="geometry">
            <mxPoint x="360" y="650" as="targetPoint" />
            <Array as="points">
              <mxPoint x="520" y="650" />
            </Array>
          </mxGeometry>
        </mxCell>
        <mxCell id="avIDiTlglhun5P4ctQTW-7" value="display &quot;Fail&quot;" style="shape=parallelogram;perimeter=parallelogramPerimeter;whiteSpace=wrap;html=1;fixedSize=1;" parent="1" vertex="1">
          <mxGeometry x="460" y="560" width="120" height="60" as="geometry" />
        </mxCell>
        <mxCell id="avIDiTlglhun5P4ctQTW-8" value="end" style="strokeWidth=2;html=1;shape=mxgraph.flowchart.terminator;whiteSpace=wrap;" parent="1" vertex="1">
          <mxGeometry x="310" y="680" width="100" height="60" as="geometry" />
        </mxCell>
        <mxCell id="YwCEqdf0-yE4EAoYH6hO-1" value="Yes" style="text;html=1;strokeColor=none;fillColor=none;align=center;verticalAlign=middle;whiteSpace=wrap;rounded=0;" parent="1" vertex="1">
          <mxGeometry x="350" y="520" width="60" height="20" as="geometry" />
        </mxCell>
        <mxCell id="YwCEqdf0-yE4EAoYH6hO-2" value="No" style="text;html=1;strokeColor=none;fillColor=none;align=center;verticalAlign=middle;whiteSpace=wrap;rounded=0;" parent="1" vertex="1">
          <mxGeometry x="400" y="460" width="60" height="20" as="geometry" />
        </mxCell>
      </root>
    </mxGraphModel>
  </diagram>
  <diagram name="fc2" id="_IaGrwMCuONb_AQRTVbz">
    <mxGraphModel dx="874" dy="682" grid="1" gridSize="10" guides="1" tooltips="1" connect="1" arrows="1" fold="1" page="1" pageScale="1" pageWidth="827" pageHeight="1169" math="0" shadow="0">
      <root>
        <mxCell id="zeBvHcyvNRH1TCaqQQg8-0" />
        <mxCell id="zeBvHcyvNRH1TCaqQQg8-1" parent="zeBvHcyvNRH1TCaqQQg8-0" />
        <mxCell id="zeBvHcyvNRH1TCaqQQg8-2" style="edgeStyle=orthogonalEdgeStyle;rounded=0;orthogonalLoop=1;jettySize=auto;html=1;exitX=0.5;exitY=1;exitDx=0;exitDy=0;exitPerimeter=0;entryX=0.5;entryY=0;entryDx=0;entryDy=0;endArrow=block;endFill=1;" parent="zeBvHcyvNRH1TCaqQQg8-1" source="zeBvHcyvNRH1TCaqQQg8-3" target="zeBvHcyvNRH1TCaqQQg8-5" edge="1">
          <mxGeometry relative="1" as="geometry" />
        </mxCell>
        <mxCell id="zeBvHcyvNRH1TCaqQQg8-3" value="start" style="strokeWidth=2;html=1;shape=mxgraph.flowchart.terminator;whiteSpace=wrap;" parent="zeBvHcyvNRH1TCaqQQg8-1" vertex="1">
          <mxGeometry x="310" y="120" width="100" height="60" as="geometry" />
        </mxCell>
        <mxCell id="zeBvHcyvNRH1TCaqQQg8-4" style="edgeStyle=orthogonalEdgeStyle;rounded=0;orthogonalLoop=1;jettySize=auto;html=1;exitX=0.5;exitY=1;exitDx=0;exitDy=0;entryX=0.5;entryY=0;entryDx=0;entryDy=0;endArrow=block;endFill=1;" parent="zeBvHcyvNRH1TCaqQQg8-1" source="zeBvHcyvNRH1TCaqQQg8-5" target="zeBvHcyvNRH1TCaqQQg8-7" edge="1">
          <mxGeometry relative="1" as="geometry" />
        </mxCell>
        <mxCell id="zeBvHcyvNRH1TCaqQQg8-5" value="set score&lt;br&gt;initially 0" style="shape=hexagon;perimeter=hexagonPerimeter2;whiteSpace=wrap;html=1;fixedSize=1;" parent="zeBvHcyvNRH1TCaqQQg8-1" vertex="1">
          <mxGeometry x="300" y="240" width="120" height="60" as="geometry" />
        </mxCell>
        <mxCell id="zeBvHcyvNRH1TCaqQQg8-18" style="edgeStyle=orthogonalEdgeStyle;rounded=0;orthogonalLoop=1;jettySize=auto;html=1;exitX=0.5;exitY=1;exitDx=0;exitDy=0;entryX=0.5;entryY=0;entryDx=0;entryDy=0;endArrow=block;endFill=1;" parent="zeBvHcyvNRH1TCaqQQg8-1" source="zeBvHcyvNRH1TCaqQQg8-7" target="zeBvHcyvNRH1TCaqQQg8-16" edge="1">
          <mxGeometry relative="1" as="geometry" />
        </mxCell>
        <mxCell id="zeBvHcyvNRH1TCaqQQg8-7" value="get score from keyboard" style="shape=parallelogram;perimeter=parallelogramPerimeter;whiteSpace=wrap;html=1;fixedSize=1;" parent="zeBvHcyvNRH1TCaqQQg8-1" vertex="1">
          <mxGeometry x="300" y="360" width="120" height="60" as="geometry" />
        </mxCell>
        <mxCell id="zeBvHcyvNRH1TCaqQQg8-8" style="edgeStyle=orthogonalEdgeStyle;rounded=0;orthogonalLoop=1;jettySize=auto;html=1;exitX=0.5;exitY=1;exitDx=0;exitDy=0;entryX=0.5;entryY=0;entryDx=0;entryDy=0;endArrow=block;endFill=1;" parent="zeBvHcyvNRH1TCaqQQg8-1" source="zeBvHcyvNRH1TCaqQQg8-10" target="zeBvHcyvNRH1TCaqQQg8-12" edge="1">
          <mxGeometry relative="1" as="geometry" />
        </mxCell>
        <mxCell id="zeBvHcyvNRH1TCaqQQg8-9" style="edgeStyle=orthogonalEdgeStyle;rounded=0;orthogonalLoop=1;jettySize=auto;html=1;exitX=1;exitY=0.5;exitDx=0;exitDy=0;entryX=0.5;entryY=0;entryDx=0;entryDy=0;endArrow=block;endFill=1;" parent="zeBvHcyvNRH1TCaqQQg8-1" source="zeBvHcyvNRH1TCaqQQg8-10" target="zeBvHcyvNRH1TCaqQQg8-14" edge="1">
          <mxGeometry relative="1" as="geometry" />
        </mxCell>
        <mxCell id="zeBvHcyvNRH1TCaqQQg8-10" value="is score &amp;gt;= 60?" style="rhombus;whiteSpace=wrap;html=1;" parent="zeBvHcyvNRH1TCaqQQg8-1" vertex="1">
          <mxGeometry x="300" y="600" width="120" height="80" as="geometry" />
        </mxCell>
        <mxCell id="zeBvHcyvNRH1TCaqQQg8-11" style="edgeStyle=orthogonalEdgeStyle;rounded=0;orthogonalLoop=1;jettySize=auto;html=1;exitX=0.5;exitY=1;exitDx=0;exitDy=0;entryX=0.5;entryY=0;entryDx=0;entryDy=0;entryPerimeter=0;endArrow=block;endFill=1;" parent="zeBvHcyvNRH1TCaqQQg8-1" source="zeBvHcyvNRH1TCaqQQg8-12" target="zeBvHcyvNRH1TCaqQQg8-15" edge="1">
          <mxGeometry relative="1" as="geometry" />
        </mxCell>
        <mxCell id="zeBvHcyvNRH1TCaqQQg8-12" value="display &quot;Pass&quot;" style="shape=parallelogram;perimeter=parallelogramPerimeter;whiteSpace=wrap;html=1;fixedSize=1;" parent="zeBvHcyvNRH1TCaqQQg8-1" vertex="1">
          <mxGeometry x="300" y="720" width="120" height="60" as="geometry" />
        </mxCell>
        <mxCell id="zeBvHcyvNRH1TCaqQQg8-13" style="edgeStyle=orthogonalEdgeStyle;rounded=0;orthogonalLoop=1;jettySize=auto;html=1;exitX=0.5;exitY=1;exitDx=0;exitDy=0;endArrow=block;endFill=1;" parent="zeBvHcyvNRH1TCaqQQg8-1" source="zeBvHcyvNRH1TCaqQQg8-14" edge="1">
          <mxGeometry relative="1" as="geometry">
            <mxPoint x="360" y="810" as="targetPoint" />
            <Array as="points">
              <mxPoint x="520" y="810" />
            </Array>
          </mxGeometry>
        </mxCell>
        <mxCell id="zeBvHcyvNRH1TCaqQQg8-14" value="display &quot;Fail&quot;" style="shape=parallelogram;perimeter=parallelogramPerimeter;whiteSpace=wrap;html=1;fixedSize=1;" parent="zeBvHcyvNRH1TCaqQQg8-1" vertex="1">
          <mxGeometry x="460" y="720" width="120" height="60" as="geometry" />
        </mxCell>
        <mxCell id="zeBvHcyvNRH1TCaqQQg8-15" value="end" style="strokeWidth=2;html=1;shape=mxgraph.flowchart.terminator;whiteSpace=wrap;" parent="zeBvHcyvNRH1TCaqQQg8-1" vertex="1">
          <mxGeometry x="310" y="840" width="100" height="60" as="geometry" />
        </mxCell>
        <mxCell id="zeBvHcyvNRH1TCaqQQg8-17" style="edgeStyle=orthogonalEdgeStyle;rounded=0;orthogonalLoop=1;jettySize=auto;html=1;exitX=0.5;exitY=1;exitDx=0;exitDy=0;entryX=0.5;entryY=0;entryDx=0;entryDy=0;endArrow=block;endFill=1;" parent="zeBvHcyvNRH1TCaqQQg8-1" source="zeBvHcyvNRH1TCaqQQg8-16" target="zeBvHcyvNRH1TCaqQQg8-10" edge="1">
          <mxGeometry relative="1" as="geometry" />
        </mxCell>
        <mxCell id="TPI-UxDvFd0ehiue-wFk-1" style="edgeStyle=orthogonalEdgeStyle;rounded=0;orthogonalLoop=1;jettySize=auto;html=1;exitX=1;exitY=0.5;exitDx=0;exitDy=0;entryX=0.5;entryY=1;entryDx=0;entryDy=0;endArrow=block;endFill=1;" parent="zeBvHcyvNRH1TCaqQQg8-1" source="zeBvHcyvNRH1TCaqQQg8-16" target="TPI-UxDvFd0ehiue-wFk-0" edge="1">
          <mxGeometry relative="1" as="geometry" />
        </mxCell>
        <mxCell id="zeBvHcyvNRH1TCaqQQg8-16" value="is score &amp;gt;= 0 and&lt;br&gt;score &amp;lt;= 100?" style="rhombus;whiteSpace=wrap;html=1;" parent="zeBvHcyvNRH1TCaqQQg8-1" vertex="1">
          <mxGeometry x="290" y="470" width="140" height="100" as="geometry" />
        </mxCell>
        <mxCell id="4csyb0R2HS04pm-oZLvR-0" value="Yes" style="text;html=1;strokeColor=none;fillColor=none;align=center;verticalAlign=middle;whiteSpace=wrap;rounded=0;" parent="zeBvHcyvNRH1TCaqQQg8-1" vertex="1">
          <mxGeometry x="350" y="560" width="60" height="30" as="geometry" />
        </mxCell>
        <mxCell id="8Def1OxhVW30pTBEFVQh-0" value="No" style="text;html=1;strokeColor=none;fillColor=none;align=center;verticalAlign=middle;whiteSpace=wrap;rounded=0;" parent="zeBvHcyvNRH1TCaqQQg8-1" vertex="1">
          <mxGeometry x="410" y="500" width="60" height="20" as="geometry" />
        </mxCell>
        <mxCell id="8Def1OxhVW30pTBEFVQh-1" value="Yes" style="text;html=1;strokeColor=none;fillColor=none;align=center;verticalAlign=middle;whiteSpace=wrap;rounded=0;" parent="zeBvHcyvNRH1TCaqQQg8-1" vertex="1">
          <mxGeometry x="350" y="680" width="60" height="20" as="geometry" />
        </mxCell>
        <mxCell id="8Def1OxhVW30pTBEFVQh-2" value="No" style="text;html=1;strokeColor=none;fillColor=none;align=center;verticalAlign=middle;whiteSpace=wrap;rounded=0;" parent="zeBvHcyvNRH1TCaqQQg8-1" vertex="1">
          <mxGeometry x="400" y="620" width="60" height="20" as="geometry" />
        </mxCell>
        <mxCell id="TPI-UxDvFd0ehiue-wFk-2" style="edgeStyle=orthogonalEdgeStyle;rounded=0;orthogonalLoop=1;jettySize=auto;html=1;exitX=0.5;exitY=0;exitDx=0;exitDy=0;endArrow=block;endFill=1;" parent="zeBvHcyvNRH1TCaqQQg8-1" source="TPI-UxDvFd0ehiue-wFk-0" target="zeBvHcyvNRH1TCaqQQg8-7" edge="1">
          <mxGeometry relative="1" as="geometry" />
        </mxCell>
        <mxCell id="TPI-UxDvFd0ehiue-wFk-0" value="display &quot;Invalid&quot;" style="shape=parallelogram;perimeter=parallelogramPerimeter;whiteSpace=wrap;html=1;fixedSize=1;" parent="zeBvHcyvNRH1TCaqQQg8-1" vertex="1">
          <mxGeometry x="460" y="420" width="120" height="60" as="geometry" />
        </mxCell>
      </root>
    </mxGraphModel>
  </diagram>
  <diagram id="k8fjhn-RSbzLbYJLMaBn" name="sd3">
    <mxGraphModel dx="1022" dy="539" grid="1" gridSize="10" guides="1" tooltips="1" connect="1" arrows="1" fold="1" page="1" pageScale="1" pageWidth="1169" pageHeight="827" math="0" shadow="0">
      <root>
        <mxCell id="g5B5vSVlvZt4Q3H2A_YF-0" />
        <mxCell id="g5B5vSVlvZt4Q3H2A_YF-1" parent="g5B5vSVlvZt4Q3H2A_YF-0" />
        <mxCell id="wKgI8id6guEbUg2TfhM8-0" value="Graded Test Result" style="rounded=0;whiteSpace=wrap;html=1;" parent="g5B5vSVlvZt4Q3H2A_YF-1" vertex="1">
          <mxGeometry x="520" y="40" width="120" height="60" as="geometry" />
        </mxCell>
        <mxCell id="wKgI8id6guEbUg2TfhM8-22" style="edgeStyle=orthogonalEdgeStyle;rounded=0;orthogonalLoop=1;jettySize=auto;html=1;exitX=0.5;exitY=1;exitDx=0;exitDy=0;entryX=0.5;entryY=0;entryDx=0;entryDy=0;endArrow=none;endFill=0;" parent="g5B5vSVlvZt4Q3H2A_YF-1" source="wKgI8id6guEbUg2TfhM8-1" target="wKgI8id6guEbUg2TfhM8-4" edge="1">
          <mxGeometry relative="1" as="geometry" />
        </mxCell>
        <mxCell id="wKgI8id6guEbUg2TfhM8-47" style="edgeStyle=orthogonalEdgeStyle;rounded=0;orthogonalLoop=1;jettySize=auto;html=1;exitX=0.5;exitY=0;exitDx=0;exitDy=0;endArrow=none;endFill=0;" parent="g5B5vSVlvZt4Q3H2A_YF-1" source="wKgI8id6guEbUg2TfhM8-1" edge="1">
          <mxGeometry relative="1" as="geometry">
            <mxPoint x="340.3103448275863" y="120" as="targetPoint" />
          </mxGeometry>
        </mxCell>
        <mxCell id="wKgI8id6guEbUg2TfhM8-1" value="Initialise variables" style="rounded=0;whiteSpace=wrap;html=1;" parent="g5B5vSVlvZt4Q3H2A_YF-1" vertex="1">
          <mxGeometry x="280" y="160" width="120" height="60" as="geometry" />
        </mxCell>
        <mxCell id="wKgI8id6guEbUg2TfhM8-4" value="Get valid score" style="rounded=0;whiteSpace=wrap;html=1;" parent="g5B5vSVlvZt4Q3H2A_YF-1" vertex="1">
          <mxGeometry x="280" y="280" width="120" height="60" as="geometry" />
        </mxCell>
        <mxCell id="wKgI8id6guEbUg2TfhM8-7" value="Set grade to A" style="rounded=0;whiteSpace=wrap;html=1;" parent="g5B5vSVlvZt4Q3H2A_YF-1" vertex="1">
          <mxGeometry x="440" y="280" width="120" height="60" as="geometry" />
        </mxCell>
        <mxCell id="wKgI8id6guEbUg2TfhM8-17" style="rounded=0;orthogonalLoop=1;jettySize=auto;html=1;exitX=0.375;exitY=1;exitDx=0;exitDy=0;entryX=0.5;entryY=0;entryDx=0;entryDy=0;endArrow=none;endFill=0;" parent="g5B5vSVlvZt4Q3H2A_YF-1" source="wKgI8id6guEbUg2TfhM8-11" target="wKgI8id6guEbUg2TfhM8-7" edge="1">
          <mxGeometry relative="1" as="geometry" />
        </mxCell>
        <mxCell id="wKgI8id6guEbUg2TfhM8-18" style="rounded=0;orthogonalLoop=1;jettySize=auto;html=1;exitX=0.625;exitY=1;exitDx=0;exitDy=0;entryX=0.375;entryY=0;entryDx=0;entryDy=0;endArrow=none;endFill=0;" parent="g5B5vSVlvZt4Q3H2A_YF-1" source="wKgI8id6guEbUg2TfhM8-11" target="wKgI8id6guEbUg2TfhM8-12" edge="1">
          <mxGeometry relative="1" as="geometry" />
        </mxCell>
        <mxCell id="wKgI8id6guEbUg2TfhM8-48" style="edgeStyle=orthogonalEdgeStyle;rounded=0;orthogonalLoop=1;jettySize=auto;html=1;exitX=0.5;exitY=0;exitDx=0;exitDy=0;entryX=0.5;entryY=1;entryDx=0;entryDy=0;endArrow=none;endFill=0;" parent="g5B5vSVlvZt4Q3H2A_YF-1" source="wKgI8id6guEbUg2TfhM8-11" target="wKgI8id6guEbUg2TfhM8-0" edge="1">
          <mxGeometry relative="1" as="geometry" />
        </mxCell>
        <mxCell id="wKgI8id6guEbUg2TfhM8-11" value="Is score &amp;gt;= 70?" style="shape=hexagon;perimeter=hexagonPerimeter2;whiteSpace=wrap;html=1;fixedSize=1;" parent="g5B5vSVlvZt4Q3H2A_YF-1" vertex="1">
          <mxGeometry x="520" y="160" width="120" height="60" as="geometry" />
        </mxCell>
        <mxCell id="wKgI8id6guEbUg2TfhM8-20" style="rounded=0;orthogonalLoop=1;jettySize=auto;html=1;exitX=0.375;exitY=1;exitDx=0;exitDy=0;entryX=0.5;entryY=0;entryDx=0;entryDy=0;endArrow=none;endFill=0;" parent="g5B5vSVlvZt4Q3H2A_YF-1" source="wKgI8id6guEbUg2TfhM8-12" target="wKgI8id6guEbUg2TfhM8-19" edge="1">
          <mxGeometry relative="1" as="geometry" />
        </mxCell>
        <mxCell id="wKgI8id6guEbUg2TfhM8-21" style="rounded=0;orthogonalLoop=1;jettySize=auto;html=1;exitX=0.625;exitY=1;exitDx=0;exitDy=0;entryX=0.375;entryY=0;entryDx=0;entryDy=0;endArrow=none;endFill=0;" parent="g5B5vSVlvZt4Q3H2A_YF-1" source="wKgI8id6guEbUg2TfhM8-12" target="wKgI8id6guEbUg2TfhM8-13" edge="1">
          <mxGeometry relative="1" as="geometry" />
        </mxCell>
        <mxCell id="wKgI8id6guEbUg2TfhM8-12" value="Is score &amp;gt;= 60?" style="shape=hexagon;perimeter=hexagonPerimeter2;whiteSpace=wrap;html=1;fixedSize=1;" parent="g5B5vSVlvZt4Q3H2A_YF-1" vertex="1">
          <mxGeometry x="600" y="280" width="120" height="60" as="geometry" />
        </mxCell>
        <mxCell id="wKgI8id6guEbUg2TfhM8-27" style="rounded=0;orthogonalLoop=1;jettySize=auto;html=1;exitX=0.375;exitY=1;exitDx=0;exitDy=0;entryX=0.5;entryY=0;entryDx=0;entryDy=0;endArrow=none;endFill=0;" parent="g5B5vSVlvZt4Q3H2A_YF-1" source="wKgI8id6guEbUg2TfhM8-13" target="wKgI8id6guEbUg2TfhM8-26" edge="1">
          <mxGeometry relative="1" as="geometry" />
        </mxCell>
        <mxCell id="wKgI8id6guEbUg2TfhM8-28" style="rounded=0;orthogonalLoop=1;jettySize=auto;html=1;exitX=0.625;exitY=1;exitDx=0;exitDy=0;entryX=0.375;entryY=0;entryDx=0;entryDy=0;endArrow=none;endFill=0;" parent="g5B5vSVlvZt4Q3H2A_YF-1" source="wKgI8id6guEbUg2TfhM8-13" target="wKgI8id6guEbUg2TfhM8-14" edge="1">
          <mxGeometry relative="1" as="geometry" />
        </mxCell>
        <mxCell id="wKgI8id6guEbUg2TfhM8-13" value="Is score &amp;gt;= 50?" style="shape=hexagon;perimeter=hexagonPerimeter2;whiteSpace=wrap;html=1;fixedSize=1;" parent="g5B5vSVlvZt4Q3H2A_YF-1" vertex="1">
          <mxGeometry x="680" y="400" width="120" height="60" as="geometry" />
        </mxCell>
        <mxCell id="wKgI8id6guEbUg2TfhM8-31" style="rounded=0;orthogonalLoop=1;jettySize=auto;html=1;exitX=0.375;exitY=1;exitDx=0;exitDy=0;entryX=0.75;entryY=0;entryDx=0;entryDy=0;endArrow=none;endFill=0;" parent="g5B5vSVlvZt4Q3H2A_YF-1" source="wKgI8id6guEbUg2TfhM8-14" target="wKgI8id6guEbUg2TfhM8-29" edge="1">
          <mxGeometry relative="1" as="geometry" />
        </mxCell>
        <mxCell id="wKgI8id6guEbUg2TfhM8-32" style="rounded=0;orthogonalLoop=1;jettySize=auto;html=1;exitX=0.625;exitY=1;exitDx=0;exitDy=0;entryX=0.25;entryY=0;entryDx=0;entryDy=0;endArrow=none;endFill=0;" parent="g5B5vSVlvZt4Q3H2A_YF-1" source="wKgI8id6guEbUg2TfhM8-14" target="wKgI8id6guEbUg2TfhM8-30" edge="1">
          <mxGeometry relative="1" as="geometry" />
        </mxCell>
        <mxCell id="wKgI8id6guEbUg2TfhM8-14" value="Is score &amp;gt;= 40?" style="shape=hexagon;perimeter=hexagonPerimeter2;whiteSpace=wrap;html=1;fixedSize=1;" parent="g5B5vSVlvZt4Q3H2A_YF-1" vertex="1">
          <mxGeometry x="760" y="520" width="120" height="60" as="geometry" />
        </mxCell>
        <mxCell id="wKgI8id6guEbUg2TfhM8-19" value="Set grade to B" style="rounded=0;whiteSpace=wrap;html=1;" parent="g5B5vSVlvZt4Q3H2A_YF-1" vertex="1">
          <mxGeometry x="520" y="400" width="120" height="60" as="geometry" />
        </mxCell>
        <mxCell id="wKgI8id6guEbUg2TfhM8-45" style="edgeStyle=orthogonalEdgeStyle;rounded=0;orthogonalLoop=1;jettySize=auto;html=1;exitX=0.5;exitY=0;exitDx=0;exitDy=0;endArrow=none;endFill=0;" parent="g5B5vSVlvZt4Q3H2A_YF-1" source="wKgI8id6guEbUg2TfhM8-23" edge="1">
          <mxGeometry relative="1" as="geometry">
            <mxPoint x="820.3103448275863" y="120" as="targetPoint" />
          </mxGeometry>
        </mxCell>
        <mxCell id="wKgI8id6guEbUg2TfhM8-23" value="Display grade" style="rounded=0;whiteSpace=wrap;html=1;" parent="g5B5vSVlvZt4Q3H2A_YF-1" vertex="1">
          <mxGeometry x="760" y="160" width="120" height="60" as="geometry" />
        </mxCell>
        <mxCell id="wKgI8id6guEbUg2TfhM8-26" value="Set grade to C" style="rounded=0;whiteSpace=wrap;html=1;" parent="g5B5vSVlvZt4Q3H2A_YF-1" vertex="1">
          <mxGeometry x="600" y="520" width="120" height="60" as="geometry" />
        </mxCell>
        <mxCell id="wKgI8id6guEbUg2TfhM8-29" value="Set grade to D" style="rounded=0;whiteSpace=wrap;html=1;" parent="g5B5vSVlvZt4Q3H2A_YF-1" vertex="1">
          <mxGeometry x="680" y="640" width="120" height="60" as="geometry" />
        </mxCell>
        <mxCell id="wKgI8id6guEbUg2TfhM8-30" value="Set grade to&lt;br&gt;No Award" style="rounded=0;whiteSpace=wrap;html=1;" parent="g5B5vSVlvZt4Q3H2A_YF-1" vertex="1">
          <mxGeometry x="840" y="640" width="120" height="60" as="geometry" />
        </mxCell>
        <mxCell id="wKgI8id6guEbUg2TfhM8-33" value="Yes" style="text;html=1;strokeColor=none;fillColor=none;align=right;verticalAlign=middle;whiteSpace=wrap;rounded=0;" parent="g5B5vSVlvZt4Q3H2A_YF-1" vertex="1">
          <mxGeometry x="500" y="220" width="40" height="30" as="geometry" />
        </mxCell>
        <mxCell id="wKgI8id6guEbUg2TfhM8-34" value="No" style="text;html=1;strokeColor=none;fillColor=none;align=left;verticalAlign=middle;whiteSpace=wrap;rounded=0;" parent="g5B5vSVlvZt4Q3H2A_YF-1" vertex="1">
          <mxGeometry x="620" y="220" width="45" height="30" as="geometry" />
        </mxCell>
        <mxCell id="wKgI8id6guEbUg2TfhM8-36" value="Yes" style="text;html=1;strokeColor=none;fillColor=none;align=right;verticalAlign=middle;whiteSpace=wrap;rounded=0;" parent="g5B5vSVlvZt4Q3H2A_YF-1" vertex="1">
          <mxGeometry x="740" y="580" width="40" height="30" as="geometry" />
        </mxCell>
        <mxCell id="wKgI8id6guEbUg2TfhM8-37" value="Yes" style="text;html=1;strokeColor=none;fillColor=none;align=right;verticalAlign=middle;whiteSpace=wrap;rounded=0;" parent="g5B5vSVlvZt4Q3H2A_YF-1" vertex="1">
          <mxGeometry x="660" y="460" width="40" height="30" as="geometry" />
        </mxCell>
        <mxCell id="wKgI8id6guEbUg2TfhM8-38" value="Yes" style="text;html=1;strokeColor=none;fillColor=none;align=right;verticalAlign=middle;whiteSpace=wrap;rounded=0;" parent="g5B5vSVlvZt4Q3H2A_YF-1" vertex="1">
          <mxGeometry x="580" y="340" width="40" height="30" as="geometry" />
        </mxCell>
        <mxCell id="wKgI8id6guEbUg2TfhM8-41" value="No" style="text;html=1;strokeColor=none;fillColor=none;align=left;verticalAlign=middle;whiteSpace=wrap;rounded=0;" parent="g5B5vSVlvZt4Q3H2A_YF-1" vertex="1">
          <mxGeometry x="700" y="340" width="45" height="30" as="geometry" />
        </mxCell>
        <mxCell id="wKgI8id6guEbUg2TfhM8-42" value="No" style="text;html=1;strokeColor=none;fillColor=none;align=left;verticalAlign=middle;whiteSpace=wrap;rounded=0;" parent="g5B5vSVlvZt4Q3H2A_YF-1" vertex="1">
          <mxGeometry x="860" y="580" width="45" height="30" as="geometry" />
        </mxCell>
        <mxCell id="wKgI8id6guEbUg2TfhM8-43" value="No" style="text;html=1;strokeColor=none;fillColor=none;align=left;verticalAlign=middle;whiteSpace=wrap;rounded=0;" parent="g5B5vSVlvZt4Q3H2A_YF-1" vertex="1">
          <mxGeometry x="780" y="460" width="45" height="30" as="geometry" />
        </mxCell>
        <mxCell id="wKgI8id6guEbUg2TfhM8-44" value="" style="endArrow=none;html=1;rounded=0;" parent="g5B5vSVlvZt4Q3H2A_YF-1" edge="1">
          <mxGeometry width="50" height="50" relative="1" as="geometry">
            <mxPoint x="340" y="120" as="sourcePoint" />
            <mxPoint x="820" y="120" as="targetPoint" />
          </mxGeometry>
        </mxCell>
      </root>
    </mxGraphModel>
  </diagram>
  <diagram name="sd4" id="nyKYsSQgziD9FAc5sH8n">
    <mxGraphModel dx="1022" dy="539" grid="1" gridSize="10" guides="1" tooltips="1" connect="1" arrows="1" fold="1" page="1" pageScale="1" pageWidth="1169" pageHeight="827" math="0" shadow="0">
      <root>
        <mxCell id="CraYP-mXsNmlcti1qwm--0" />
        <mxCell id="CraYP-mXsNmlcti1qwm--1" parent="CraYP-mXsNmlcti1qwm--0" />
        <mxCell id="CraYP-mXsNmlcti1qwm--2" style="edgeStyle=orthogonalEdgeStyle;rounded=0;orthogonalLoop=1;jettySize=auto;html=1;exitX=0.5;exitY=1;exitDx=0;exitDy=0;endArrow=none;endFill=0;" parent="CraYP-mXsNmlcti1qwm--1" source="CraYP-mXsNmlcti1qwm--3" edge="1">
          <mxGeometry relative="1" as="geometry">
            <mxPoint x="540" y="160" as="targetPoint" />
          </mxGeometry>
        </mxCell>
        <mxCell id="CraYP-mXsNmlcti1qwm--3" value="Results" style="rounded=0;whiteSpace=wrap;html=1;" parent="CraYP-mXsNmlcti1qwm--1" vertex="1">
          <mxGeometry x="480" y="80" width="120" height="60" as="geometry" />
        </mxCell>
        <mxCell id="CraYP-mXsNmlcti1qwm--4" style="edgeStyle=orthogonalEdgeStyle;rounded=0;orthogonalLoop=1;jettySize=auto;html=1;exitX=0.5;exitY=0;exitDx=0;exitDy=0;endArrow=none;endFill=0;" parent="CraYP-mXsNmlcti1qwm--1" source="CraYP-mXsNmlcti1qwm--5" edge="1">
          <mxGeometry relative="1" as="geometry">
            <mxPoint x="380.3103448275863" y="160" as="targetPoint" />
          </mxGeometry>
        </mxCell>
        <mxCell id="CraYP-mXsNmlcti1qwm--5" value="Initialise variables&lt;br&gt;and data structure" style="rounded=0;whiteSpace=wrap;html=1;" parent="CraYP-mXsNmlcti1qwm--1" vertex="1">
          <mxGeometry x="320" y="180" width="120" height="60" as="geometry" />
        </mxCell>
        <mxCell id="CraYP-mXsNmlcti1qwm--6" value="Convert mark to grade" style="rounded=0;whiteSpace=wrap;html=1;" parent="CraYP-mXsNmlcti1qwm--1" vertex="1">
          <mxGeometry x="480" y="370" width="120" height="60" as="geometry" />
        </mxCell>
        <mxCell id="CraYP-mXsNmlcti1qwm--9" value="" style="endArrow=none;html=1;rounded=0;" parent="CraYP-mXsNmlcti1qwm--1" edge="1">
          <mxGeometry width="50" height="50" relative="1" as="geometry">
            <mxPoint x="380" y="160" as="sourcePoint" />
            <mxPoint x="700" y="160" as="targetPoint" />
          </mxGeometry>
        </mxCell>
        <mxCell id="CraYP-mXsNmlcti1qwm--12" style="edgeStyle=orthogonalEdgeStyle;rounded=0;orthogonalLoop=1;jettySize=auto;html=1;exitX=0.5;exitY=0;exitDx=0;exitDy=0;endArrow=none;endFill=0;" parent="CraYP-mXsNmlcti1qwm--1" edge="1">
          <mxGeometry relative="1" as="geometry">
            <mxPoint x="540" y="160" as="targetPoint" />
            <mxPoint x="540" y="200" as="sourcePoint" />
          </mxGeometry>
        </mxCell>
        <mxCell id="CraYP-mXsNmlcti1qwm--13" style="edgeStyle=orthogonalEdgeStyle;rounded=0;orthogonalLoop=1;jettySize=auto;html=1;exitX=0.5;exitY=1;exitDx=0;exitDy=0;endArrow=none;endFill=0;entryX=0.5;entryY=0;entryDx=0;entryDy=0;" parent="CraYP-mXsNmlcti1qwm--1" target="CraYP-mXsNmlcti1qwm--6" edge="1">
          <mxGeometry relative="1" as="geometry">
            <mxPoint x="540.1428571428571" y="380" as="targetPoint" />
            <mxPoint x="540" y="240" as="sourcePoint" />
          </mxGeometry>
        </mxCell>
        <mxCell id="CraYP-mXsNmlcti1qwm--15" style="edgeStyle=orthogonalEdgeStyle;rounded=0;orthogonalLoop=1;jettySize=auto;html=1;exitX=0.5;exitY=0;exitDx=0;exitDy=0;endArrow=none;endFill=0;" parent="CraYP-mXsNmlcti1qwm--1" source="CraYP-mXsNmlcti1qwm--16" edge="1">
          <mxGeometry relative="1" as="geometry">
            <mxPoint x="620.1428571428571" y="350" as="targetPoint" />
            <Array as="points">
              <mxPoint x="700" y="350" />
            </Array>
          </mxGeometry>
        </mxCell>
        <mxCell id="CraYP-mXsNmlcti1qwm--16" value="Store grade" style="rounded=0;whiteSpace=wrap;html=1;" parent="CraYP-mXsNmlcti1qwm--1" vertex="1">
          <mxGeometry x="640" y="370" width="120" height="60" as="geometry" />
        </mxCell>
        <mxCell id="CraYP-mXsNmlcti1qwm--19" style="edgeStyle=orthogonalEdgeStyle;rounded=0;orthogonalLoop=1;jettySize=auto;html=1;exitX=0.5;exitY=0;exitDx=0;exitDy=0;endArrow=none;endFill=0;" parent="CraYP-mXsNmlcti1qwm--1" source="CraYP-mXsNmlcti1qwm--20" edge="1">
          <mxGeometry relative="1" as="geometry">
            <mxPoint x="700" y="240" as="targetPoint" />
          </mxGeometry>
        </mxCell>
        <mxCell id="CraYP-mXsNmlcti1qwm--20" value="Display grade" style="rounded=0;whiteSpace=wrap;html=1;" parent="CraYP-mXsNmlcti1qwm--1" vertex="1">
          <mxGeometry x="640" y="270" width="120" height="60" as="geometry" />
        </mxCell>
        <mxCell id="CraYP-mXsNmlcti1qwm--21" style="edgeStyle=orthogonalEdgeStyle;rounded=0;orthogonalLoop=1;jettySize=auto;html=1;exitX=0.5;exitY=0;exitDx=0;exitDy=0;endArrow=none;endFill=0;" parent="CraYP-mXsNmlcti1qwm--1" edge="1">
          <mxGeometry relative="1" as="geometry">
            <mxPoint x="700" y="160" as="targetPoint" />
            <mxPoint x="700" y="200" as="sourcePoint" />
          </mxGeometry>
        </mxCell>
        <mxCell id="CraYP-mXsNmlcti1qwm--23" value="" style="endArrow=none;html=1;rounded=0;" parent="CraYP-mXsNmlcti1qwm--1" edge="1">
          <mxGeometry width="50" height="50" relative="1" as="geometry">
            <mxPoint x="380" y="350" as="sourcePoint" />
            <mxPoint x="620" y="350" as="targetPoint" />
          </mxGeometry>
        </mxCell>
        <mxCell id="CraYP-mXsNmlcti1qwm--24" style="edgeStyle=orthogonalEdgeStyle;rounded=0;orthogonalLoop=1;jettySize=auto;html=1;exitX=0.5;exitY=0;exitDx=0;exitDy=0;endArrow=none;endFill=0;" parent="CraYP-mXsNmlcti1qwm--1" source="CraYP-mXsNmlcti1qwm--25" edge="1">
          <mxGeometry relative="1" as="geometry">
            <mxPoint x="380.1428571428571" y="350" as="targetPoint" />
          </mxGeometry>
        </mxCell>
        <mxCell id="CraYP-mXsNmlcti1qwm--25" value="Get valid mark" style="rounded=0;whiteSpace=wrap;html=1;" parent="CraYP-mXsNmlcti1qwm--1" vertex="1">
          <mxGeometry x="320" y="370" width="120" height="60" as="geometry" />
        </mxCell>
        <mxCell id="Uhk8mfOWdw3014bLHzbf-0" value="Loop&lt;br&gt;for 5 results" style="rounded=1;whiteSpace=wrap;html=1;arcSize=50;" parent="CraYP-mXsNmlcti1qwm--1" vertex="1">
          <mxGeometry x="480" y="180" width="120" height="60" as="geometry" />
        </mxCell>
        <mxCell id="Uhk8mfOWdw3014bLHzbf-1" value="Loop for &lt;br&gt;each grade" style="rounded=1;whiteSpace=wrap;html=1;arcSize=50;" parent="CraYP-mXsNmlcti1qwm--1" vertex="1">
          <mxGeometry x="640" y="180" width="120" height="60" as="geometry" />
        </mxCell>
      </root>
    </mxGraphModel>
  </diagram>
  <diagram name="sd5" id="nq3hfyptlFCVr2CrW04x">
    <mxGraphModel dx="874" dy="682" grid="1" gridSize="10" guides="1" tooltips="1" connect="1" arrows="1" fold="1" page="1" pageScale="1" pageWidth="1169" pageHeight="827" math="0" shadow="0">
      <root>
        <mxCell id="nQaSH5ZJLGZen89Ir8Ug-0" />
        <mxCell id="nQaSH5ZJLGZen89Ir8Ug-1" parent="nQaSH5ZJLGZen89Ir8Ug-0" />
        <mxCell id="DQY4unRg5TGk52qzZA9S-4" style="edgeStyle=orthogonalEdgeStyle;rounded=0;orthogonalLoop=1;jettySize=auto;html=1;exitX=0.5;exitY=1;exitDx=0;exitDy=0;endArrow=none;endFill=0;" parent="nQaSH5ZJLGZen89Ir8Ug-1" source="nQaSH5ZJLGZen89Ir8Ug-2" edge="1">
          <mxGeometry relative="1" as="geometry">
            <mxPoint x="620" y="160" as="targetPoint" />
          </mxGeometry>
        </mxCell>
        <mxCell id="nQaSH5ZJLGZen89Ir8Ug-2" value="Averaged&lt;br&gt;Test Result" style="rounded=0;whiteSpace=wrap;html=1;" parent="nQaSH5ZJLGZen89Ir8Ug-1" vertex="1">
          <mxGeometry x="560" y="80" width="120" height="60" as="geometry" />
        </mxCell>
        <mxCell id="nQaSH5ZJLGZen89Ir8Ug-4" style="edgeStyle=orthogonalEdgeStyle;rounded=0;orthogonalLoop=1;jettySize=auto;html=1;exitX=0.5;exitY=0;exitDx=0;exitDy=0;endArrow=none;endFill=0;" parent="nQaSH5ZJLGZen89Ir8Ug-1" source="nQaSH5ZJLGZen89Ir8Ug-5" edge="1">
          <mxGeometry relative="1" as="geometry">
            <mxPoint x="380.3103448275863" y="160" as="targetPoint" />
          </mxGeometry>
        </mxCell>
        <mxCell id="nQaSH5ZJLGZen89Ir8Ug-5" value="Initialise variables" style="rounded=0;whiteSpace=wrap;html=1;" parent="nQaSH5ZJLGZen89Ir8Ug-1" vertex="1">
          <mxGeometry x="320" y="200" width="120" height="60" as="geometry" />
        </mxCell>
        <mxCell id="nQaSH5ZJLGZen89Ir8Ug-44" style="edgeStyle=orthogonalEdgeStyle;rounded=0;orthogonalLoop=1;jettySize=auto;html=1;exitX=0.5;exitY=0;exitDx=0;exitDy=0;endArrow=none;endFill=0;" parent="nQaSH5ZJLGZen89Ir8Ug-1" source="nQaSH5ZJLGZen89Ir8Ug-6" target="nQaSH5ZJLGZen89Ir8Ug-38" edge="1">
          <mxGeometry relative="1" as="geometry" />
        </mxCell>
        <mxCell id="nQaSH5ZJLGZen89Ir8Ug-6" value="Get valid score" style="rounded=0;whiteSpace=wrap;html=1;" parent="nQaSH5ZJLGZen89Ir8Ug-1" vertex="1">
          <mxGeometry x="480" y="320" width="120" height="60" as="geometry" />
        </mxCell>
        <mxCell id="DQY4unRg5TGk52qzZA9S-2" style="edgeStyle=orthogonalEdgeStyle;rounded=0;orthogonalLoop=1;jettySize=auto;html=1;exitX=0.5;exitY=0;exitDx=0;exitDy=0;endArrow=none;endFill=0;" parent="nQaSH5ZJLGZen89Ir8Ug-1" source="nQaSH5ZJLGZen89Ir8Ug-23" edge="1">
          <mxGeometry relative="1" as="geometry">
            <mxPoint x="860" y="160" as="targetPoint" />
          </mxGeometry>
        </mxCell>
        <mxCell id="nQaSH5ZJLGZen89Ir8Ug-23" value="Calculate grade" style="rounded=0;whiteSpace=wrap;html=1;" parent="nQaSH5ZJLGZen89Ir8Ug-1" vertex="1">
          <mxGeometry x="800" y="200" width="120" height="60" as="geometry" />
        </mxCell>
        <mxCell id="nQaSH5ZJLGZen89Ir8Ug-35" value="" style="endArrow=none;html=1;rounded=0;" parent="nQaSH5ZJLGZen89Ir8Ug-1" edge="1">
          <mxGeometry width="50" height="50" relative="1" as="geometry">
            <mxPoint x="380" y="160" as="sourcePoint" />
            <mxPoint x="860" y="160" as="targetPoint" />
          </mxGeometry>
        </mxCell>
        <mxCell id="nQaSH5ZJLGZen89Ir8Ug-37" style="edgeStyle=orthogonalEdgeStyle;rounded=0;orthogonalLoop=1;jettySize=auto;html=1;exitX=0.5;exitY=0;exitDx=0;exitDy=0;entryX=0.5;entryY=1;entryDx=0;entryDy=0;endArrow=none;endFill=0;" parent="nQaSH5ZJLGZen89Ir8Ug-1" source="nQaSH5ZJLGZen89Ir8Ug-36" target="nQaSH5ZJLGZen89Ir8Ug-23" edge="1">
          <mxGeometry relative="1" as="geometry" />
        </mxCell>
        <mxCell id="nQaSH5ZJLGZen89Ir8Ug-36" value="&lt;span&gt;Display average and grade&lt;/span&gt;" style="rounded=0;whiteSpace=wrap;html=1;align=center;" parent="nQaSH5ZJLGZen89Ir8Ug-1" vertex="1">
          <mxGeometry x="800" y="320" width="120" height="60" as="geometry" />
        </mxCell>
        <mxCell id="DQY4unRg5TGk52qzZA9S-3" style="edgeStyle=orthogonalEdgeStyle;rounded=0;orthogonalLoop=1;jettySize=auto;html=1;exitX=0.5;exitY=0;exitDx=0;exitDy=0;endArrow=none;endFill=0;" parent="nQaSH5ZJLGZen89Ir8Ug-1" source="nQaSH5ZJLGZen89Ir8Ug-38" edge="1">
          <mxGeometry relative="1" as="geometry">
            <mxPoint x="540" y="160" as="targetPoint" />
          </mxGeometry>
        </mxCell>
        <mxCell id="nQaSH5ZJLGZen89Ir8Ug-38" value="Repeat 3 times" style="ellipse;whiteSpace=wrap;html=1;" parent="nQaSH5ZJLGZen89Ir8Ug-1" vertex="1">
          <mxGeometry x="480" y="200" width="120" height="60" as="geometry" />
        </mxCell>
        <mxCell id="nQaSH5ZJLGZen89Ir8Ug-45" style="edgeStyle=orthogonalEdgeStyle;rounded=0;orthogonalLoop=1;jettySize=auto;html=1;exitX=0.5;exitY=0;exitDx=0;exitDy=0;entryX=0.5;entryY=1;entryDx=0;entryDy=0;endArrow=none;endFill=0;" parent="nQaSH5ZJLGZen89Ir8Ug-1" source="nQaSH5ZJLGZen89Ir8Ug-39" target="nQaSH5ZJLGZen89Ir8Ug-6" edge="1">
          <mxGeometry relative="1" as="geometry" />
        </mxCell>
        <mxCell id="nQaSH5ZJLGZen89Ir8Ug-39" value="Add score to total" style="rounded=0;whiteSpace=wrap;html=1;" parent="nQaSH5ZJLGZen89Ir8Ug-1" vertex="1">
          <mxGeometry x="480" y="440" width="120" height="60" as="geometry" />
        </mxCell>
        <mxCell id="nQaSH5ZJLGZen89Ir8Ug-42" style="edgeStyle=orthogonalEdgeStyle;rounded=0;orthogonalLoop=1;jettySize=auto;html=1;exitX=0.5;exitY=0;exitDx=0;exitDy=0;endArrow=none;endFill=0;" parent="nQaSH5ZJLGZen89Ir8Ug-1" source="nQaSH5ZJLGZen89Ir8Ug-40" edge="1">
          <mxGeometry relative="1" as="geometry">
            <mxPoint x="700" y="160" as="targetPoint" />
          </mxGeometry>
        </mxCell>
        <mxCell id="DQY4unRg5TGk52qzZA9S-1" style="edgeStyle=orthogonalEdgeStyle;rounded=0;orthogonalLoop=1;jettySize=auto;html=1;exitX=0.5;exitY=1;exitDx=0;exitDy=0;entryX=0.5;entryY=0;entryDx=0;entryDy=0;endArrow=none;endFill=0;" parent="nQaSH5ZJLGZen89Ir8Ug-1" source="nQaSH5ZJLGZen89Ir8Ug-40" target="DQY4unRg5TGk52qzZA9S-0" edge="1">
          <mxGeometry relative="1" as="geometry" />
        </mxCell>
        <mxCell id="nQaSH5ZJLGZen89Ir8Ug-40" value="&lt;span&gt;average = total / 3&lt;br&gt;&lt;/span&gt;" style="rounded=0;whiteSpace=wrap;html=1;align=center;" parent="nQaSH5ZJLGZen89Ir8Ug-1" vertex="1">
          <mxGeometry x="640" y="200" width="120" height="60" as="geometry" />
        </mxCell>
        <mxCell id="DQY4unRg5TGk52qzZA9S-0" value="&lt;span&gt;Round average to 0 decimal places&lt;br&gt;&lt;/span&gt;" style="rounded=0;whiteSpace=wrap;html=1;align=center;" parent="nQaSH5ZJLGZen89Ir8Ug-1" vertex="1">
          <mxGeometry x="640" y="320" width="120" height="60" as="geometry" />
        </mxCell>
      </root>
    </mxGraphModel>
  </diagram>
  <diagram name="sd6" id="iFNWz3vZJi2d8ToOtYPY">
    <mxGraphModel dx="874" dy="682" grid="1" gridSize="10" guides="1" tooltips="1" connect="1" arrows="1" fold="1" page="1" pageScale="1" pageWidth="1169" pageHeight="827" math="0" shadow="0">
      <root>
        <mxCell id="XwCg-8jbipV7RRRudUau-0" />
        <mxCell id="XwCg-8jbipV7RRRudUau-1" parent="XwCg-8jbipV7RRRudUau-0" />
        <mxCell id="XwCg-8jbipV7RRRudUau-34" style="edgeStyle=orthogonalEdgeStyle;rounded=0;orthogonalLoop=1;jettySize=auto;html=1;exitX=0.5;exitY=1;exitDx=0;exitDy=0;endArrow=none;endFill=0;" parent="XwCg-8jbipV7RRRudUau-1" source="XwCg-8jbipV7RRRudUau-2" edge="1">
          <mxGeometry relative="1" as="geometry">
            <mxPoint x="620" y="160" as="targetPoint" />
          </mxGeometry>
        </mxCell>
        <mxCell id="XwCg-8jbipV7RRRudUau-2" value="Test results&lt;br&gt;stored and averaged" style="rounded=0;whiteSpace=wrap;html=1;" parent="XwCg-8jbipV7RRRudUau-1" vertex="1">
          <mxGeometry x="560" y="80" width="120" height="60" as="geometry" />
        </mxCell>
        <mxCell id="XwCg-8jbipV7RRRudUau-3" style="edgeStyle=orthogonalEdgeStyle;rounded=0;orthogonalLoop=1;jettySize=auto;html=1;exitX=0.5;exitY=0;exitDx=0;exitDy=0;endArrow=none;endFill=0;" parent="XwCg-8jbipV7RRRudUau-1" source="XwCg-8jbipV7RRRudUau-4" edge="1">
          <mxGeometry relative="1" as="geometry">
            <mxPoint x="380.3103448275863" y="160" as="targetPoint" />
          </mxGeometry>
        </mxCell>
        <mxCell id="XwCg-8jbipV7RRRudUau-4" value="Initialise variables&lt;br&gt;and data structures" style="rounded=0;whiteSpace=wrap;html=1;" parent="XwCg-8jbipV7RRRudUau-1" vertex="1">
          <mxGeometry x="320" y="200" width="120" height="60" as="geometry" />
        </mxCell>
        <mxCell id="XwCg-8jbipV7RRRudUau-6" value="Store score" style="rounded=0;whiteSpace=wrap;html=1;" parent="XwCg-8jbipV7RRRudUau-1" vertex="1">
          <mxGeometry x="480" y="440" width="120" height="60" as="geometry" />
        </mxCell>
        <mxCell id="XwCg-8jbipV7RRRudUau-7" style="edgeStyle=orthogonalEdgeStyle;rounded=0;orthogonalLoop=1;jettySize=auto;html=1;exitX=0.5;exitY=0;exitDx=0;exitDy=0;entryX=0.5;entryY=1;entryDx=0;entryDy=0;endArrow=none;endFill=0;" parent="XwCg-8jbipV7RRRudUau-1" source="XwCg-8jbipV7RRRudUau-8" target="XwCg-8jbipV7RRRudUau-17" edge="1">
          <mxGeometry relative="1" as="geometry" />
        </mxCell>
        <mxCell id="XwCg-8jbipV7RRRudUau-8" value="Calculate grade" style="rounded=0;whiteSpace=wrap;html=1;" parent="XwCg-8jbipV7RRRudUau-1" vertex="1">
          <mxGeometry x="800" y="320" width="120" height="60" as="geometry" />
        </mxCell>
        <mxCell id="XwCg-8jbipV7RRRudUau-9" value="" style="endArrow=none;html=1;rounded=0;" parent="XwCg-8jbipV7RRRudUau-1" edge="1">
          <mxGeometry width="50" height="50" relative="1" as="geometry">
            <mxPoint x="380" y="160" as="sourcePoint" />
            <mxPoint x="700" y="160" as="targetPoint" />
          </mxGeometry>
        </mxCell>
        <mxCell id="XwCg-8jbipV7RRRudUau-10" style="edgeStyle=orthogonalEdgeStyle;rounded=0;orthogonalLoop=1;jettySize=auto;html=1;exitX=0.5;exitY=0;exitDx=0;exitDy=0;entryX=0.5;entryY=1;entryDx=0;entryDy=0;endArrow=none;endFill=0;" parent="XwCg-8jbipV7RRRudUau-1" source="XwCg-8jbipV7RRRudUau-11" target="XwCg-8jbipV7RRRudUau-8" edge="1">
          <mxGeometry relative="1" as="geometry" />
        </mxCell>
        <mxCell id="XwCg-8jbipV7RRRudUau-11" value="&lt;span&gt;Display average and grade&lt;/span&gt;" style="rounded=0;whiteSpace=wrap;html=1;align=center;" parent="XwCg-8jbipV7RRRudUau-1" vertex="1">
          <mxGeometry x="800" y="440" width="120" height="60" as="geometry" />
        </mxCell>
        <mxCell id="XwCg-8jbipV7RRRudUau-32" style="edgeStyle=orthogonalEdgeStyle;rounded=0;orthogonalLoop=1;jettySize=auto;html=1;exitX=0.5;exitY=0;exitDx=0;exitDy=0;endArrow=none;endFill=0;" parent="XwCg-8jbipV7RRRudUau-1" source="XwCg-8jbipV7RRRudUau-13" edge="1">
          <mxGeometry relative="1" as="geometry">
            <mxPoint x="540" y="160" as="targetPoint" />
          </mxGeometry>
        </mxCell>
        <mxCell id="XwCg-8jbipV7RRRudUau-38" style="edgeStyle=orthogonalEdgeStyle;rounded=0;orthogonalLoop=1;jettySize=auto;html=1;exitX=0.5;exitY=1;exitDx=0;exitDy=0;endArrow=none;endFill=0;entryX=0.5;entryY=0;entryDx=0;entryDy=0;" parent="XwCg-8jbipV7RRRudUau-1" source="XwCg-8jbipV7RRRudUau-13" target="XwCg-8jbipV7RRRudUau-6" edge="1">
          <mxGeometry relative="1" as="geometry">
            <mxPoint x="540.1428571428571" y="400" as="targetPoint" />
          </mxGeometry>
        </mxCell>
        <mxCell id="XwCg-8jbipV7RRRudUau-13" value="start loop&lt;br&gt;for 3 scores" style="ellipse;whiteSpace=wrap;html=1;" parent="XwCg-8jbipV7RRRudUau-1" vertex="1">
          <mxGeometry x="480" y="200" width="120" height="60" as="geometry" />
        </mxCell>
        <mxCell id="XwCg-8jbipV7RRRudUau-37" style="edgeStyle=orthogonalEdgeStyle;rounded=0;orthogonalLoop=1;jettySize=auto;html=1;exitX=0.5;exitY=0;exitDx=0;exitDy=0;endArrow=none;endFill=0;" parent="XwCg-8jbipV7RRRudUau-1" source="XwCg-8jbipV7RRRudUau-15" edge="1">
          <mxGeometry relative="1" as="geometry">
            <mxPoint x="620.1428571428571" y="400" as="targetPoint" />
            <Array as="points">
              <mxPoint x="700" y="400" />
            </Array>
          </mxGeometry>
        </mxCell>
        <mxCell id="XwCg-8jbipV7RRRudUau-15" value="Add score to total" style="rounded=0;whiteSpace=wrap;html=1;" parent="XwCg-8jbipV7RRRudUau-1" vertex="1">
          <mxGeometry x="640" y="440" width="120" height="60" as="geometry" />
        </mxCell>
        <mxCell id="XwCg-8jbipV7RRRudUau-16" style="edgeStyle=orthogonalEdgeStyle;rounded=0;orthogonalLoop=1;jettySize=auto;html=1;exitX=0.5;exitY=0;exitDx=0;exitDy=0;endArrow=none;endFill=0;" parent="XwCg-8jbipV7RRRudUau-1" source="XwCg-8jbipV7RRRudUau-17" edge="1">
          <mxGeometry relative="1" as="geometry">
            <mxPoint x="700" y="160" as="targetPoint" />
            <Array as="points">
              <mxPoint x="860" y="160" />
            </Array>
          </mxGeometry>
        </mxCell>
        <mxCell id="XwCg-8jbipV7RRRudUau-17" value="&lt;span&gt;Calculate average and round to 0 decimal places&lt;/span&gt;" style="rounded=0;whiteSpace=wrap;html=1;align=center;" parent="XwCg-8jbipV7RRRudUau-1" vertex="1">
          <mxGeometry x="800" y="200" width="120" height="60" as="geometry" />
        </mxCell>
        <mxCell id="XwCg-8jbipV7RRRudUau-27" style="edgeStyle=orthogonalEdgeStyle;rounded=0;orthogonalLoop=1;jettySize=auto;html=1;exitX=0.5;exitY=0;exitDx=0;exitDy=0;endArrow=none;endFill=0;" parent="XwCg-8jbipV7RRRudUau-1" source="XwCg-8jbipV7RRRudUau-29" target="XwCg-8jbipV7RRRudUau-30" edge="1">
          <mxGeometry relative="1" as="geometry" />
        </mxCell>
        <mxCell id="XwCg-8jbipV7RRRudUau-29" value="Display next score on a new line" style="rounded=0;whiteSpace=wrap;html=1;" parent="XwCg-8jbipV7RRRudUau-1" vertex="1">
          <mxGeometry x="640" y="320" width="120" height="60" as="geometry" />
        </mxCell>
        <mxCell id="XwCg-8jbipV7RRRudUau-33" style="edgeStyle=orthogonalEdgeStyle;rounded=0;orthogonalLoop=1;jettySize=auto;html=1;exitX=0.5;exitY=0;exitDx=0;exitDy=0;endArrow=none;endFill=0;" parent="XwCg-8jbipV7RRRudUau-1" source="XwCg-8jbipV7RRRudUau-30" edge="1">
          <mxGeometry relative="1" as="geometry">
            <mxPoint x="700" y="160" as="targetPoint" />
          </mxGeometry>
        </mxCell>
        <mxCell id="XwCg-8jbipV7RRRudUau-30" value="start loop&lt;br&gt;for each score" style="ellipse;whiteSpace=wrap;html=1;" parent="XwCg-8jbipV7RRRudUau-1" vertex="1">
          <mxGeometry x="640" y="200" width="120" height="60" as="geometry" />
        </mxCell>
        <mxCell id="XwCg-8jbipV7RRRudUau-35" value="" style="endArrow=none;html=1;rounded=0;" parent="XwCg-8jbipV7RRRudUau-1" edge="1">
          <mxGeometry width="50" height="50" relative="1" as="geometry">
            <mxPoint x="380" y="400" as="sourcePoint" />
            <mxPoint x="620" y="400" as="targetPoint" />
          </mxGeometry>
        </mxCell>
        <mxCell id="XwCg-8jbipV7RRRudUau-40" style="edgeStyle=orthogonalEdgeStyle;rounded=0;orthogonalLoop=1;jettySize=auto;html=1;exitX=0.5;exitY=0;exitDx=0;exitDy=0;endArrow=none;endFill=0;" parent="XwCg-8jbipV7RRRudUau-1" source="XwCg-8jbipV7RRRudUau-39" edge="1">
          <mxGeometry relative="1" as="geometry">
            <mxPoint x="380.1428571428571" y="400" as="targetPoint" />
          </mxGeometry>
        </mxCell>
        <mxCell id="XwCg-8jbipV7RRRudUau-39" value="Get valid score" style="rounded=0;whiteSpace=wrap;html=1;" parent="XwCg-8jbipV7RRRudUau-1" vertex="1">
          <mxGeometry x="320" y="440" width="120" height="60" as="geometry" />
        </mxCell>
      </root>
    </mxGraphModel>
  </diagram>
</mxfile>
